<?xml version="1.0" standalone="no"?>
<!DOCTYPE svg PUBLIC "-//W3C//DTD SVG 20010904//EN"
 "http://www.w3.org/TR/2001/REC-SVG-20010904/DTD/svg10.dtd">
<svg version="1.0" xmlns="http://www.w3.org/2000/svg"
 width="512.000000pt" height="512.000000pt" viewBox="0 0 512.000000 512.000000"
 preserveAspectRatio="xMidYMid meet">

<g transform="translate(0.000000,512.000000) scale(0.100000,-0.100000)"
fill="#000000" stroke="none">
<path d="M1452 3295 c-121 -31 -196 -66 -219 -102 -10 -15 -44 -53 -76 -82
-77 -72 -114 -129 -230 -352 -112 -216 -202 -378 -222 -398 -12 -12 -17 -12
-30 -1 -8 7 -13 15 -11 18 3 2 1 13 -5 24 -6 11 -13 29 -15 41 -9 38 -12 52
-14 55 -2 1 -4 7 -5 12 -1 6 -4 13 -5 18 -1 4 -2 10 -1 15 0 4 -4 7 -10 7 -6
0 -9 7 -5 15 3 8 1 15 -5 15 -6 0 -9 6 -6 14 3 8 -1 20 -8 26 -8 7 -13 16 -10
20 8 12 -6 41 -16 34 -5 -3 -10 0 -10 5 -2 12 -5 26 -9 39 -1 4 -2 10 -1 15 0
4 -3 7 -8 7 -5 0 -9 19 -9 43 -1 45 -2 51 -22 115 -7 23 -17 42 -22 42 -4 0
-7 3 -7 8 3 19 -2 32 -14 32 -8 0 -24 11 -37 25 -28 30 -77 45 -148 45 -47 0
-53 -3 -62 -26 -6 -14 -8 -49 -6 -78 6 -91 181 -585 290 -822 18 -38 36 -95
40 -125 11 -79 45 -132 108 -163 32 -16 69 -26 95 -26 40 0 44 2 64 43 12 23
27 49 34 57 7 8 43 74 79 145 37 72 71 135 76 141 5 7 6 14 4 17 -3 3 8 23 24
46 16 22 35 60 42 85 7 25 16 43 21 41 4 -3 6 4 4 15 -2 11 1 20 6 20 6 0 8 4
5 8 -3 5 1 20 9 35 7 14 11 28 7 31 -3 3 0 6 6 6 7 0 11 3 10 8 -1 4 5 21 12
37 7 17 13 33 12 38 -1 4 3 7 9 7 5 0 8 4 5 9 -3 5 3 20 14 34 11 14 20 33 20
42 0 10 5 13 12 9 6 -4 8 -3 5 3 -9 14 37 95 48 86 4 -5 5 -3 2 3 -4 6 9 28
28 49 19 22 31 43 29 47 -3 5 12 25 33 45 21 20 31 33 23 29 -9 -5 -9 -2 2 7
10 8 15 17 11 20 -3 4 1 7 10 7 9 0 21 10 28 23 6 12 21 30 33 40 11 10 14 15
6 11 -22 -11 14 31 88 103 l64 62 -23 50 c-13 28 -31 50 -39 50 -8 0 -57 -11
-108 -24z"/>
<path d="M3607 3295 c-48 -14 -102 -32 -120 -41 -36 -19 -77 -53 -77 -66 0
-13 -78 -87 -84 -80 -3 3 -6 -2 -6 -11 0 -9 -9 -21 -20 -27 -11 -6 -18 -15
-15 -21 4 -5 -1 -9 -10 -9 -9 0 -13 -5 -10 -10 3 -6 -1 -13 -9 -16 -9 -3 -14
-10 -11 -14 3 -5 -1 -15 -9 -23 -8 -8 -13 -17 -10 -20 3 -3 -4 -10 -15 -16
-12 -7 -18 -17 -15 -26 4 -8 1 -15 -6 -15 -6 0 -8 -4 -5 -10 3 -5 1 -10 -5
-10 -6 0 -8 -4 -5 -10 3 -5 1 -10 -4 -10 -6 0 -10 -3 -9 -7 2 -13 -23 -67 -35
-75 -7 -4 -12 -11 -12 -15 -1 -15 -50 -113 -56 -113 -11 0 -48 -77 -42 -84 4
-3 0 -6 -7 -6 -7 0 -10 -3 -7 -7 4 -3 -1 -12 -11 -20 -10 -9 -11 -12 -2 -7 8
4 4 -5 -10 -21 -14 -16 -19 -25 -11 -20 9 5 7 -1 -4 -19 -10 -14 -22 -26 -27
-26 -5 0 -6 -4 -3 -10 3 -5 1 -10 -5 -10 -6 0 -9 -4 -5 -10 7 -11 -30 -50 -49
-50 -8 0 -27 44 -50 118 -21 64 -55 155 -77 201 -26 56 -39 98 -39 126 0 65
-30 144 -70 186 -41 43 -124 72 -192 67 -39 -3 -43 -6 -46 -30 -2 -16 -8 -28
-13 -28 -6 0 -7 -6 -2 -12 4 -7 8 -32 8 -55 1 -23 7 -49 15 -58 7 -8 10 -18 7
-22 -3 -3 0 -18 9 -34 8 -16 12 -29 8 -29 -4 0 -1 -6 5 -13 6 -8 12 -22 14
-33 2 -10 7 -27 11 -36 4 -9 9 -22 10 -30 1 -7 8 -23 14 -36 7 -12 11 -26 8
-30 -3 -5 6 -30 19 -57 13 -27 21 -53 19 -57 -3 -5 0 -8 6 -8 7 0 10 -6 7 -14
-3 -8 -2 -16 3 -18 5 -2 11 -14 14 -28 2 -14 5 -27 6 -30 2 -3 2 -8 1 -12 0
-5 4 -8 10 -8 5 0 8 -4 5 -9 -4 -5 -1 -11 4 -13 6 -2 12 -13 13 -26 0 -12 4
-22 7 -22 3 0 6 -10 7 -21 1 -12 9 -29 18 -39 9 -10 17 -27 18 -39 1 -11 5
-21 9 -21 4 0 7 -3 6 -7 -1 -5 5 -21 12 -38 14 -30 17 -40 19 -63 0 -7 5 -11
9 -8 5 3 9 -15 11 -39 3 -60 52 -167 85 -184 14 -8 24 -17 22 -20 -2 -3 6 -6
17 -7 12 0 45 -4 72 -8 l50 -7 144 270 c80 149 159 310 176 359 84 234 222
452 434 687 44 49 81 94 81 99 0 5 -9 29 -21 53 -25 52 -40 54 -172 18z"/>
<path d="M4215 3143 c-11 -2 -27 -7 -35 -10 -8 -4 -18 -7 -22 -8 -5 -2 -11 -4
-15 -5 -5 -1 -11 -2 -15 -1 -5 0 -8 -3 -8 -8 0 -9 -38 -24 -53 -22 -5 1 -6 -3
-2 -8 6 -10 -29 -34 -37 -25 -3 2 -11 -4 -19 -13 -13 -17 -12 -17 6 -4 11 8 1
-5 -22 -28 -24 -23 -43 -44 -43 -47 0 -4 -11 -15 -25 -26 -14 -11 -25 -27 -25
-35 0 -9 -8 -22 -17 -30 -11 -9 -12 -12 -3 -7 8 4 5 -4 -8 -18 -12 -14 -25
-36 -27 -49 -3 -13 -9 -25 -15 -27 -6 -2 -8 -8 -4 -13 3 -5 0 -9 -5 -9 -6 0
-10 -3 -10 -7 1 -5 1 -10 -1 -13 -1 -3 -4 -16 -6 -29 -2 -14 -11 -32 -19 -41
-8 -9 -15 -26 -15 -38 0 -11 -5 -33 -12 -49 -6 -15 -12 -31 -12 -35 -1 -3 -4
-9 -8 -13 -4 -4 -4 -13 -1 -21 3 -8 1 -14 -5 -14 -7 0 -10 -56 -10 -157 0
-133 2 -161 16 -177 13 -15 14 -18 2 -11 -11 6 -10 3 3 -12 9 -11 14 -23 10
-26 -3 -4 -1 -7 6 -7 7 0 10 -4 7 -9 -3 -5 1 -14 9 -21 8 -7 13 -16 10 -20 -3
-4 2 -11 11 -14 9 -4 14 -9 11 -13 -4 -3 5 -14 18 -25 14 -11 25 -25 25 -32 0
-7 12 -23 27 -37 14 -13 23 -18 18 -10 -5 9 2 7 17 -5 14 -10 24 -22 21 -26
-4 -7 2 -9 22 -8 3 1 13 -6 21 -14 24 -25 112 -46 189 -46 61 0 85 6 175 43
202 84 326 162 422 266 115 125 164 251 155 405 -14 226 -54 336 -161 433
-134 123 -396 208 -541 176z m210 -397 c49 -21 88 -85 93 -154 4 -52 1 -61
-28 -97 -100 -128 -249 -245 -311 -245 -15 0 -16 5 -7 41 8 28 8 63 0 114 -15
110 11 233 64 302 38 50 122 67 189 39z"/>
<path d="M3969 3003 c-13 -16 -12 -17 4 -4 16 13 21 21 13 21 -2 0 -10 -8 -17
-17z"/>
</g>
</svg>
